<?xml version="1.0" encoding="UTF-8"?>
<svg id="Layer_1" xmlns="http://www.w3.org/2000/svg" viewBox="0 0 189.4 60">
  <g class="csp-name">
    <path d="M85.3,5.6c0-2.2,2-3.9,5.3-3.9,4,0,5.9,3.3,5.9,3.3l1.1-1.2s-2.4-3.4-7.1-3.4-7,2.2-7,5.3c0,7.6,13.1,3,13.1,9.3,0,2.4-2.1,4.1-5.7,4.1s-6.2-1.8-6.7-5h-1.6c.5,4,3.4,6.3,8.3,6.3s7.4-2.2,7.4-5.6c0-7.7-13.1-3.2-13.1-9.3l.1.1Z" style="fill:#ffffff;"/>
    <path d="M15.1,17.4c-1.3.7-2.8,1.1-4.4,1.1-5.2,0-8.9-3.6-8.9-8.5S5.5,1.5,10.7,1.5s4.8.9,6.2,2.4l.7-1.5c-1.8-1.5-4.2-2.4-7-2.4C4.4,0,0,4.2,0,10s4.4,10,10.6,10,2.4-.2,3.5-.5l1-2v-.1Z" style="fill:#ffffff;"/>
    <path d="M63.9,13.1L55.5.8h1.8l7.4,10.8,7.4-10.8h1.8l-8.4,12.3v7h-1.6s0-7,0-7Z" style="fill:#ffffff;"/>
    <path d="M140.6,2.2v7.6h10.9v1.4h-10.9v7.5h12.1v1.4h-13.8V.8h13.8v1.4h-12.1Z" style="fill:#ffffff;"/>
    <path d="M158.9,2.2v7.6h10.9v1.4h-10.9v7.5h12.1v1.4h-13.8V.8h14l-1.4,1.4h-10.9Z" style="fill:#ffffff;"/>
    <path d="M189.3,2.2h-7.6v17.9h-1.6V2.2h-7.7l1.4-1.4h15.6v1.4h-.1Z" style="fill:#ffffff;"/>
    <path d="M116.1,2.2h-7.6v17.9h-1.6V2.2h-7.6l1.3-1.4h15.6v1.4h-.1Z" style="fill:#ffffff;"/>
    <path d="M84.9,26.9h3.8c2.4,0,3.9,1.4,3.9,3.2s-1.8,3.4-4,3.4h-2.4v3.4h-1.3s0-10,0-10ZM88.5,32.4c1.6,0,2.8-.8,2.8-2.3s-1.2-2.1-2.8-2.1h-2.4v4.4h2.4Z" style="fill:#ffffff;"/>
    <path d="M100.4,26.9h1.2l4.6,10h-1.3l-1.3-2.8h-5.2l-1.3,2.8h-1.4s4.7-10,4.7-10ZM103.1,33l-2.1-4.7h0l-2.1,4.7h4.3-.1Z" style="fill:#ffffff;"/>
    <path d="M117.7,36.9l-3.4-4h-2.2v4h-1.3v-10h4c2.4,0,3.9,1.2,3.9,3s-1.1,2.6-2.9,2.9l3.5,4.1h-1.6ZM112.1,31.7h2.5c1.8,0,2.8-.7,2.8-1.9s-1-1.9-2.7-1.9h-2.6v3.8Z" style="fill:#ffffff;"/>
    <path d="M131.7,28h-3.8v8.9h-1.3v-8.9h-3.8v-1.1h8.8v1.1h.1Z" style="fill:#ffffff;"/>
    <path d="M145,26.9v10h-1.1l-6.5-7.8v7.8h-1.3v-10h1l6.6,7.9v-7.9h1.3Z" style="fill:#ffffff;"/>
    <path d="M152.3,28v3.4h5.4v1.1h-5.4v3.3h6v1.1h-7.3v-10h7.3v1.1s-6,0-6,0Z" style="fill:#ffffff;"/>
    <path d="M170.6,36.9l-3.4-4h-2.2v4h-1.3v-10h4c2.4,0,3.9,1.2,3.9,3s-1.1,2.6-2.9,2.9l3.5,4.1h-1.6ZM165,31.7h2.5c1.8,0,2.8-.7,2.8-1.9s-1-1.9-2.7-1.9h-2.6v3.8Z" style="fill:#ffffff;"/>
    <path d="M176.6,33.7h1.2c.2,1.4,1.3,2.3,3.2,2.3s2.5-.7,2.5-1.8c0-2.9-6.5-.6-6.5-4.7,0-1.7,1.4-2.9,3.7-2.9s3.9,1.1,4.1,2.9h-1.3c-.2-1.1-1.2-1.9-2.7-1.9s-2.4.8-2.4,1.8c0,2.9,6.4.6,6.5,4.7,0,1.8-1.5,3-3.8,3s-4.1-1.3-4.4-3.3l-.1-.1Z" style="fill:#ffffff;"/>
    <path d="M41.2,2.2h5.6c3.8,0,6,1.6,6,4.2s-2,4.3-6.4,4.2h-4.2l10.7,9.5h2.4l-9.4-8.1c4.2.4,8.5-1.2,8.5-5.6s-2.9-5.6-7.5-5.6h-7.4v19.3h1.6V2.2h.1Z" style="fill:#ffffff;"/>
    <path d="M121,2.2h5.6c3.8,0,6,1.6,6,4.2s-2,4.3-6.4,4.2h-4.2l10.7,9.5h2.4l-9.4-8.1c4.2.4,8.5-1.2,8.5-5.6s-2.9-5.6-7.5-5.6h-7.4v19.3h1.6V2.2h.1Z" style="fill:#ffffff;"/>
    <path d="M25.9.8h1.6l9.2,19.3h-1.8l-2.9-6h-10.8l-2.8,6h-1.8L25.8.8h.1ZM31.4,12.7l-4.7-10h0l-4.7,10h9.5-.1Z" style="fill:#ffffff;"/>
  </g>
  <g class="csp-wm">
    <path d="M1,52.3h1l2,6.3h0l2-6.3h1l2,6.3h0l2-6.3h1l-2.5,7.7h-1l-2-6.3h0l-2,6.3h-1l-2.5-7.7Z" style="fill:#C9A96E;"/>
    <path d="M17.2,53.1v2.6h4.1v.9h-4.1v2.5h4.6v.8h-5.6v-7.7h5.6v.8h-4.6v.1Z" style="fill:#C9A96E;"/>
    <path d="M29,52.3h.9l3.6,7.7h-1l-1-2.1h-4l-1,2.1h-1.1l3.6-7.7ZM31.1,57l-1.6-3.6h0l-1.6,3.6h3.3-.1Z" style="fill:#C9A96E;"/>
    <path d="M42.8,59.2v.8h-5.3v-7.7h1v6.9h4.4-.1Z" style="fill:#C9A96E;"/>
    <path d="M51.8,53.1h-2.9v6.9h-1v-6.9h-2.9v-.8h6.8v.8Z" style="fill:#C9A96E;"/>
    <path d="M55.8,52.3h1v3.5h4.6v-3.5h1v7.7h-1v-3.4h-4.6v3.4h-1v-7.7Z" style="fill:#C9A96E;"/>
    <path d="M74.1,52.3h1.1l2.4,6.3h0l2.4-6.3h1.1l2.1,7.7h-1l-1.7-6.3h0l-2.3,6.3h-1l-2.3-6.3h0l-1.7,6.3h-1l2.1-7.7h-.2Z" style="fill:#C9A96E;"/>
    <path d="M90.1,52.3h.9l3.6,7.7h-1l-1-2.1h-4l-1,2.1h-1.1l3.6-7.7ZM92.2,57l-1.6-3.6h0l-1.6,3.6h3.3-.1Z" style="fill:#C9A96E;"/>
    <path d="M105.4,52.3v7.7h-.8l-5-6v6h-1v-7.7h.8l5,6.1v-6.1h1Z" style="fill:#C9A96E;"/>
    <path d="M112.9,52.3h.9l3.6,7.7h-1l-1-2.1h-4l-1,2.1h-1.1l3.6-7.7ZM115,57l-1.6-3.6h0l-1.6,3.6h3.3-.1Z" style="fill:#C9A96E;"/>
    <path d="M120.9,56.1c0-2.4,1.7-4,4.1-4s3.4,1.1,3.8,2.6h-1c-.4-1.1-1.5-1.8-2.8-1.8s-3.1,1.3-3.1,3.1,1.3,3.1,3.1,3.1,2.7-1.1,2.8-2.4h-3v-.8h4.1c0,2.5-1.5,4.1-3.9,4.1s-4.1-1.6-4.1-4v.1Z" style="fill:#C9A96E;"/>
    <path d="M134.3,53.1v2.6h4.1v.9h-4.1v2.5h4.6v.8h-5.6v-7.7h5.6v.8h-4.6v.1Z" style="fill:#C9A96E;"/>
    <path d="M144.6,52.3h1.1l2.4,6.3h0l2.4-6.3h1.1l2.1,7.7h-1l-1.7-6.3h0l-2.3,6.3h-1l-2.3-6.3h0l-1.7,6.3h-1l2.1-7.7h-.2Z" style="fill:#C9A96E;"/>
    <path d="M158.7,53.1v2.6h4.1v.9h-4.1v2.5h4.6v.8h-5.6v-7.7h5.6v.8h-4.6v.1Z" style="fill:#C9A96E;"/>
    <path d="M174.4,52.3v7.7h-.8l-5-6v6h-1v-7.7h.8l5,6.1v-6.1h1Z" style="fill:#C9A96E;"/>
    <path d="M185.2,53.1h-2.9v6.9h-1v-6.9h-2.9v-.8h6.8v.8h0Z" style="fill:#C9A96E;"/>
  </g>
</svg>